<svg xmlns="http://www.w3.org/2000/svg" viewBox="0 0 512 512">
  <path fill="#E44D26" d="M107.644 470.877L74.633 100.62h362.734l-33.046 370.199L255.778 512"/>
  <path fill="#F16529" d="M256 480.523l120.03-33.277 28.24-316.352H256"/>
  <path fill="#EBEBEB" d="M256 268.217h-60.09l-4.15-46.501H256v-45.411H142.132l1.087 12.183 11.161 125.139H256zm0 117.936l-.199.053-50.574-13.656-3.233-36.217h-45.585l6.362 71.301 93.02 25.823.209-.058"/>
  <path fill="#fff" d="M255.843 268.217v45.41h55.918l-5.271 58.894-50.647 13.67v47.244l93.094-25.801.683-7.672 10.671-119.551 1.108-12.194h-12.237zm0-91.912v45.411h109.688l.911-10.207 2.069-23.021 1.086-12.183z"/>
</svg>
